<?xml version="1.0" encoding="UTF-8"?><svg id="Layer_2" xmlns="http://www.w3.org/2000/svg" viewBox="0 0 476.52 476.52"><defs><style>.cls-1{fill:#fff;}.cls-2{fill:#fd2854;}.cls-3{fill:#24f6fa;}</style></defs><g id="Layer_1-2"><g><circle cx="238.26" cy="238.26" r="238.26"/><path class="cls-2" d="M261.47,64.38c15.62-.28,31.24-.56,46.86-.84,3.15,11.23,9.22,27.07,21.53,42.78,26.97,34.45,64.61,43.69,76.99,46.17-.13,21.16-.25,42.32-.38,63.48-10.04-.13-22.62-1.27-36.65-4.91-23.2-6.03-40.48-16.35-51.39-24.18,.05,6.5,.1,16.19,.11,27.95,.01,15.67-.07,24.57-.11,34.02-.26,58.4,1.19,69.68-3.95,92.78-1.65,7.43-2.48,11.15-4.37,16.42-9.86,27.5-31.36,49.51-53.27,61.21-43.99,23.49-106.21,14.29-136.02-21.16-22.14-26.32-26.94-67.75-27.4-78.28-.06-1.33-.09-2.65-.09-2.65-.25-9.32,.39-24.27,6.05-42.32,4.43-14.13,19.01-43.67,51.76-61.59,28.91-15.82,56.52-13.98,66.79-12.77-.25,21.41-.5,42.82-.76,64.23-1.3-.33-32.67-7.76-53.27,13.6-19.6,20.33-17.19,53.99-1.89,71.03,7.41,8.26,16.76,11.35,23.14,13.53,2.87,.98,26.11,8.62,45.72-.76,27.78-13.28,31.21-44.47,31.36-46.1-.25-83.88-.5-167.76-.75-251.64Z"/><path class="cls-3" d="M236.28,48.2c21.24-.12,42.48-.24,63.72-.37-.03,6.03,.98,10.88,2.02,14.36,1.2,4.04,2.63,6.91,5.09,11.82,.21,.42,3.45,6.88,7,12.5,4.56,7.22,13.22,20.96,25.88,31.18,16.61,13.42,35.7,17.2,47.68,18.32,.32,15.07,.63,30.15,.95,45.22-13.1,2.09-37.26,4.08-65.05-4.93-18.09-5.87-31.68-14.44-40.64-21.2,5.61,34.42,8.92,80.91,0,134.34-8.73,52.28-14.2,85.06-43.37,106.01-40.59,29.16-98.7,15.05-119.39,2.02-10.54-6.64-19.65-15.62-19.65-15.62-10.8-10.64-16.93-20.81-19.14-24.68-2.81-4.91-13.86-25.15-14.61-53.9-.26-9.8,.54-26.16,7.43-44.6,3.43-9.16,16.19-41.75,51.76-61.59,33.02-18.42,64.95-14.29,74.68-12.65-.29,15.85-.59,31.7-.88,47.54-7.67-1.8-19.64-3.66-34.03-1.9-9.2,1.13-18.14,2.18-27.68,8.18-18.8,11.83-23.33,30.88-24.1,34.38-1.43,4.9-2.8,12.4-1.22,21.16,.36,2.02,3.08,16.03,14.36,26.07,3.78,3.37,5.41,3.52,10.96,8.69,4.89,4.56,6.09,6.77,10.58,10.58,0,0,4.98,4.23,11.13,7.45,11.2,5.87,31.22,6.49,45.92-.65,20.32-9.87,31.4-32.6,31.36-46.1-.25-83.88-.5-167.76-.75-251.64Z"/><path class="cls-1" d="M254.75,64.59c15.89-.32,31.77-.63,47.65-.95,5.1,12.48,15.9,34.16,37.57,54.03,17.9,16.41,36.1,25.06,47.92,29.58,.3,17.3,.6,34.6,.9,51.9-10.81,.39-27.55-.28-46.76-6.48-18.54-5.98-32.16-14.76-40.64-21.2v134.34c-.32,5.13-4.82,61.89-56.09,93.16-50.77,30.97-102.75,9.7-107.64,7.6-2.97-.98-7.84-2.83-13.23-6.15-36.19-22.34-37.62-75.53-37.82-83.06-.25-9.32,.39-24.27,6.05-42.32,5.19-16.56,20.68-44.48,51.76-61.59,22.89-12.59,44.65-13.92,55.93-13.77-.25,16.18-.51,32.35-.76,48.53-3.29-.89-23.41-5.95-43.07,6.42-18.8,11.83-23.33,30.88-24.1,34.38-.96,4.41-2.93,11.79-1.22,21.16,2.18,11.89,8.71,19.63,11.88,23.29,7.61,8.79,16.36,12.98,16.6,13.07,.02,0-.05-.04-.05-.04l.05,.04c.05,.04,.11,.08,.11,.08,2.85,4.18,8.72,11.52,18.65,16.46,16.62,8.27,34.53,4.59,45.72-.76,27.78-13.28,31.21-44.47,31.36-46.1-.25-83.88-.5-167.76-.75-251.64Z"/></g></g></svg>